<?xml version="1.0" standalone="no"?>
<!DOCTYPE svg PUBLIC "-//W3C//DTD SVG 20010904//EN"
 "http://www.w3.org/TR/2001/REC-SVG-20010904/DTD/svg10.dtd">
<svg version="1.0" xmlns="http://www.w3.org/2000/svg"
 width="1280.000000pt" height="977.000000pt" viewBox="0 0 1280.000000 977.000000"
 preserveAspectRatio="xMidYMid meet">
<metadata>
Created by potrace 1.15, written by Peter Selinger 2001-2017
</metadata>
<g transform="translate(0.000000,977.000000) scale(0.100000,-0.100000)"
fill="#000000" stroke="none">
<path d="M7210 9763 c-111 -8 -349 -61 -510 -114 -120 -39 -344 -141 -424
-192 -34 -22 -117 -96 -185 -164 -85 -87 -144 -137 -190 -163 -118 -66 -170
-170 -175 -346 -2 -85 -4 -93 -33 -130 -18 -21 -37 -59 -42 -84 -14 -59 -14
-170 0 -225 10 -39 9 -46 -11 -73 -51 -69 -45 -224 13 -305 l20 -29 -22 -81
c-32 -124 -27 -169 38 -329 19 -46 38 -119 47 -180 8 -57 24 -148 35 -203 12
-55 34 -165 50 -244 16 -80 32 -147 35 -150 3 -3 14 0 25 7 17 11 23 9 45 -18
14 -16 34 -30 43 -30 10 0 28 -11 41 -25 13 -14 29 -25 37 -25 15 0 18 26 3
35 -19 12 -10 22 15 17 18 -3 25 0 25 11 0 10 11 14 40 13 29 0 40 -5 40 -16
0 -42 41 -316 55 -371 40 -153 179 -453 293 -628 34 -52 59 -98 56 -102 -6
-10 -194 -83 -292 -115 -139 -44 -724 -175 -977 -219 -82 -14 -206 -36 -275
-50 -257 -49 -463 -75 -600 -75 -38 0 -66 -7 -89 -21 -30 -18 -39 -19 -82 -9
-93 23 -124 -5 -261 -233 -55 -92 -136 -216 -179 -275 -43 -59 -79 -115 -79
-125 0 -10 23 -61 51 -114 42 -76 49 -97 38 -104 -8 -5 -54 -23 -102 -41 -57
-20 -94 -39 -103 -54 -8 -12 -24 -56 -36 -98 -21 -80 -30 -90 -151 -188 -52
-43 -52 -43 -63 -241 l-6 -117 -51 -1 c-29 0 -60 -4 -71 -8 -10 -4 -42 -47
-70 -96 -51 -88 -52 -89 -152 -149 -56 -34 -108 -67 -117 -74 -8 -7 -50 -75
-92 -152 -79 -142 -97 -160 -156 -160 -31 0 -309 337 -322 391 -3 13 -11 74
-17 134 -31 316 -63 440 -333 1300 -147 469 -149 475 -114 612 88 342 87 481
-9 725 -29 76 -34 99 -34 176 0 83 2 89 30 124 57 68 74 136 74 288 0 117 -3
143 -22 192 -32 79 -83 142 -137 168 -42 20 -52 21 -102 11 -162 -32 -257
-161 -291 -396 -15 -103 -15 -120 3 -267 l18 -156 -52 -66 c-57 -71 -74 -80
-186 -91 -51 -5 -79 -1 -185 30 -159 47 -305 57 -406 30 -35 -9 -73 -27 -85
-39 -11 -11 -45 -77 -75 -146 -57 -131 -62 -137 -195 -251 -87 -74 -128 -183
-108 -291 23 -132 24 -124 -11 -168 -54 -69 -62 -103 -44 -208 17 -98 14 -118
-36 -257 -55 -151 27 -336 183 -410 42 -20 65 -41 120 -115 l68 -91 -50 -88
c-69 -120 -121 -236 -121 -270 0 -18 20 -56 55 -105 30 -42 55 -84 55 -94 0
-25 -32 -116 -139 -395 -50 -131 -91 -252 -91 -268 0 -22 68 -131 271 -434
148 -223 274 -417 278 -433 5 -15 14 -81 21 -147 21 -208 38 -300 84 -442 24
-76 58 -183 75 -238 37 -122 112 -278 176 -365 102 -138 270 -333 334 -389
134 -115 206 -153 400 -215 136 -43 217 -47 330 -16 62 17 82 19 129 10 84
-15 197 -12 376 10 198 25 275 48 536 160 113 48 215 90 227 94 12 4 48 -1 79
-10 50 -14 68 -15 124 -5 87 16 179 56 297 129 84 52 110 75 182 161 46 56 86
99 89 96 3 -3 11 -76 18 -162 7 -87 18 -210 23 -273 6 -63 11 -188 11 -277 l0
-163 3284 0 3284 0 6 63 c3 34 8 109 11 167 10 187 17 250 29 250 7 0 157 -83
334 -184 206 -118 340 -188 373 -196 75 -18 173 -8 248 25 133 60 488 248 526
279 44 36 119 76 177 95 69 23 106 74 206 287 52 110 108 240 125 289 30 84
31 99 31 225 -1 109 -6 157 -27 250 -31 131 -32 171 -11 255 21 83 30 375 15
489 -7 50 -28 151 -47 225 -35 132 -35 139 -25 222 15 121 14 269 -5 374 -8
50 -54 242 -101 428 l-86 338 23 102 c44 192 27 386 -51 574 -36 86 -130 216
-273 378 -103 116 -227 302 -281 420 -18 38 -65 162 -104 275 -124 354 -125
355 -296 455 -55 32 -110 64 -122 72 -31 18 -109 184 -124 261 -16 85 -8 157
35 287 50 157 57 191 45 247 -24 109 -127 186 -234 175 -228 -23 -428 -326
-427 -647 0 -133 17 -194 105 -391 l25 -56 -104 -26 c-113 -28 -290 -107 -354
-157 -60 -48 -102 -141 -102 -228 -1 -69 13 -106 72 -198 12 -20 10 -26 -17
-60 -45 -58 -50 -72 -57 -160 -9 -98 2 -131 66 -200 52 -57 58 -58 -177 36
-400 160 -478 199 -625 310 -66 51 -145 97 -265 155 -179 86 -226 118 -252
169 -8 17 -40 63 -70 103 -30 39 -94 144 -142 233 l-88 161 18 77 c43 177 69
317 84 448 21 187 20 182 60 198 19 8 44 30 55 48 36 58 80 213 80 279 0 59 2
63 46 113 55 60 100 149 109 215 8 58 -10 161 -36 213 -25 50 -25 56 15 123
80 132 89 372 21 564 -8 24 -15 49 -15 57 0 7 25 25 57 41 103 51 138 122 122
243 -28 203 -197 421 -476 613 -216 149 -325 190 -548 208 -71 5 -150 17 -175
26 -25 8 -82 28 -127 44 -188 67 -524 101 -793 82z"/>
</g>
</svg>
